#N canvas 57 44 1743 1097 12;
#X obj 730 75 netreceive -u -b;
#X msg 731 50 listen 4560;
#X obj 729 99 oscparse;
#X obj 730 128 list trim;
#X obj 836 149 print;
#X obj 730 156 route sensor;
#X floatatom 730 183 5 0 0 0 - - - 0;
#X obj 39 532 bng 19 250 50 0 empty empty empty 0 -10 0 12 #fcfcfc #000000 #000000;
#X obj 39 717 dac~;
#X obj 44 623 readsf~ 2;
#X obj 73 594 tgl 19 0 empty empty empty 0 -10 0 12 #fcfcfc #000000 #000000 0 1;
#X obj 41 498 select 1;
#X floatatom 45 465 5 0 0 0 - - - 0;
#X obj 730 21 loadbang;
#X obj 40 683 rev1~;
#X floatatom 71 286 5 0 0 0 - - - 0;
#X floatatom 116 285 5 0 0 0 - - - 0;
#X floatatom 163 286 5 0 0 0 - - - 0;
#X floatatom 210 287 5 0 0 0 - - - 0;
#X floatatom 256 285 5 0 0 0 - - - 0;
#X floatatom 303 286 5 0 0 0 - - - 0;
#X floatatom 351 283 5 0 0 0 - - - 0;
#X floatatom 398 284 5 0 0 0 - - - 0;
#X obj 162 261 moses 800;
#X obj 70 257 moses 500;
#X obj 255 260 moses 1100;
#X obj 350 258 moses 1400;
#X floatatom 442 280 5 0 0 0 - - - 0;
#X floatatom 489 281 5 0 0 0 - - - 0;
#X floatatom 535 281 5 0 0 0 - - - 0;
#X floatatom 582 282 5 0 0 0 - - - 0;
#X floatatom 627 280 5 0 0 0 - - - 0;
#X floatatom 674 281 5 0 0 0 - - - 0;
#X floatatom 721 279 5 0 0 0 - - - 0;
#X floatatom 768 280 5 0 0 0 - - - 0;
#X floatatom 813 280 5 0 0 0 - - - 0;
#X floatatom 860 281 5 0 0 0 - - - 0;
#X floatatom 906 283 5 0 0 0 - - - 0;
#X floatatom 953 284 5 0 0 0 - - - 0;
#X floatatom 1002 279 5 0 0 0 - - - 0;
#X floatatom 1049 280 5 0 0 0 - - - 0;
#X floatatom 1092 280 5 0 0 0 - - - 0;
#X floatatom 1139 281 5 0 0 0 - - - 0;
#X floatatom 1186 280 5 0 0 0 - - - 0;
#X floatatom 1233 281 5 0 0 0 - - - 0;
#X floatatom 1285 281 5 0 0 0 - - - 0;
#X floatatom 1332 282 5 0 0 0 - - - 0;
#X floatatom 1381 281 5 0 0 0 - - - 0;
#X floatatom 1428 282 5 0 0 0 - - - 0;
#X obj 441 255 moses 1700;
#X obj 534 256 moses 2000;
#X obj 626 255 moses 2300;
#X obj 720 254 moses 2600;
#X obj 812 255 moses 2900;
#X obj 905 258 moses 3200;
#X obj 1001 254 moses 3500;
#X obj 1091 255 moses 3800;
#X obj 1185 255 moses 4100;
#X obj 1284 256 moses 4400;
#X obj 1380 256 moses 4700;
#X floatatom 1560 282 5 0 0 0 - - - 0;
#X floatatom 1607 283 5 0 0 0 - - - 0;
#X obj 1559 257 moses 5000;
#X floatatom 74 393 5 0 0 0 - - - 0;
#X obj 73 326 -;
#X floatatom 186 394 5 0 0 0 - - - 0;
#X obj 187 328 -;
#X floatatom 294 393 5 0 0 0 - - - 0;
#X obj 295 327 -;
#X obj 70 358 abs;
#X obj 186 363 abs;
#X obj 294 359 abs;
#X obj 109 325 pipe 10;
#X obj 221 326 pipe 10;
#X obj 329 325 pipe 10;
#X floatatom 396 392 5 0 0 0 - - - 0;
#X obj 397 326 -;
#X obj 396 358 abs;
#X obj 431 324 pipe 10;
#X floatatom 496 391 5 0 0 0 - - - 0;
#X obj 497 325 -;
#X obj 496 357 abs;
#X obj 531 323 pipe 10;
#X floatatom 590 391 5 0 0 0 - - - 0;
#X obj 591 325 -;
#X obj 590 357 abs;
#X obj 625 323 pipe 10;
#X floatatom 689 390 5 0 0 0 - - - 0;
#X obj 690 324 -;
#X obj 689 356 abs;
#X obj 724 322 pipe 10;
#X floatatom 784 391 5 0 0 0 - - - 0;
#X obj 785 325 -;
#X obj 784 357 abs;
#X obj 819 323 pipe 10;
#X floatatom 879 392 5 0 0 0 - - - 0;
#X obj 880 326 -;
#X obj 879 358 abs;
#X obj 914 324 pipe 10;
#X floatatom 974 392 5 0 0 0 - - - 0;
#X obj 975 326 -;
#X obj 974 358 abs;
#X obj 1009 324 pipe 10;
#X floatatom 1067 390 5 0 0 0 - - - 0;
#X obj 1071 324 -;
#X obj 1070 356 abs;
#X obj 1105 322 pipe 10;
#X floatatom 1168 389 5 0 0 0 - - - 0;
#X obj 1169 323 -;
#X obj 1168 355 abs;
#X obj 1203 321 pipe 10;
#X floatatom 1267 391 5 0 0 0 - - - 0;
#X obj 1268 325 -;
#X obj 1267 357 abs;
#X obj 1302 323 pipe 10;
#X floatatom 1363 393 5 0 0 0 - - - 0;
#X obj 1364 327 -;
#X obj 1363 359 abs;
#X obj 1398 325 pipe 10;
#X floatatom 1461 391 5 0 0 0 - - - 0;
#X obj 1462 325 -;
#X obj 1461 357 abs;
#X obj 1496 323 pipe 10;
#X obj 45 434 > 1;
#X obj 150 561 bng 19 250 50 0 empty empty empty 0 -10 0 12 #fcfcfc #000000 #000000;
#X obj 150 746 dac~;
#X obj 155 652 readsf~ 2;
#X obj 184 623 tgl 19 0 empty empty empty 0 -10 0 12 #fcfcfc #000000 #000000 0 1;
#X obj 152 527 select 1;
#X floatatom 156 494 5 0 0 0 - - - 0;
#X obj 151 712 rev1~;
#X obj 156 463 > 1;
#X obj 283 532 bng 19 250 50 0 empty empty empty 0 -10 0 12 #fcfcfc #000000 #000000;
#X obj 283 717 dac~;
#X obj 288 623 readsf~ 2;
#X obj 317 594 tgl 19 0 empty empty empty 0 -10 0 12 #fcfcfc #000000 #000000 0 1;
#X obj 285 498 select 1;
#X floatatom 289 465 5 0 0 0 - - - 0;
#X obj 284 683 rev1~;
#X obj 289 434 > 1;
#X obj 399 560 bng 19 250 50 0 empty empty empty 0 -10 0 12 #fcfcfc #000000 #000000;
#X obj 399 745 dac~;
#X obj 404 651 readsf~ 2;
#X obj 433 622 tgl 19 0 empty empty empty 0 -10 0 12 #fcfcfc #000000 #000000 0 1;
#X obj 401 526 select 1;
#X floatatom 405 493 5 0 0 0 - - - 0;
#X obj 400 711 rev1~;
#X obj 405 462 > 1;
#X obj 533 531 bng 19 250 50 0 empty empty empty 0 -10 0 12 #fcfcfc #000000 #000000;
#X obj 533 716 dac~;
#X obj 538 622 readsf~ 2;
#X obj 567 593 tgl 19 0 empty empty empty 0 -10 0 12 #fcfcfc #000000 #000000 0 1;
#X obj 535 497 select 1;
#X floatatom 539 464 5 0 0 0 - - - 0;
#X obj 534 682 rev1~;
#X obj 539 433 > 1;
#X obj 474 863 bng 19 250 50 0 empty empty empty 0 -10 0 12 #fcfcfc #000000 #000000;
#X obj 474 1048 dac~;
#X obj 479 954 readsf~ 2;
#X obj 508 925 tgl 19 0 empty empty empty 0 -10 0 12 #fcfcfc #000000 #000000 0 1;
#X obj 476 829 select 1;
#X floatatom 480 796 5 0 0 0 - - - 0;
#X obj 475 1014 rev1~;
#X obj 480 765 > 1;
#X obj 601 835 bng 19 250 50 0 empty empty empty 0 -10 0 12 #fcfcfc #000000 #000000;
#X obj 601 1020 dac~;
#X obj 606 926 readsf~ 2;
#X obj 635 897 tgl 19 0 empty empty empty 0 -10 0 12 #fcfcfc #000000 #000000 0 1;
#X obj 603 801 select 1;
#X floatatom 607 768 5 0 0 0 - - - 0;
#X obj 602 986 rev1~;
#X obj 607 737 > 1;
#X obj 720 863 bng 19 250 50 0 empty empty empty 0 -10 0 12 #fcfcfc #000000 #000000;
#X obj 720 1048 dac~;
#X obj 725 954 readsf~ 2;
#X obj 754 925 tgl 19 0 empty empty empty 0 -10 0 12 #fcfcfc #000000 #000000 0 1;
#X obj 722 829 select 1;
#X floatatom 726 796 5 0 0 0 - - - 0;
#X obj 721 1014 rev1~;
#X obj 726 765 > 1;
#X obj 853 834 bng 19 250 50 0 empty empty empty 0 -10 0 12 #fcfcfc #000000 #000000;
#X obj 853 1019 dac~;
#X obj 858 925 readsf~ 2;
#X obj 887 896 tgl 19 0 empty empty empty 0 -10 0 12 #fcfcfc #000000 #000000 0 1;
#X obj 855 800 select 1;
#X floatatom 859 767 5 0 0 0 - - - 0;
#X obj 854 985 rev1~;
#X obj 859 736 > 1;
#X obj 972 859 bng 19 250 50 0 empty empty empty 0 -10 0 12 #fcfcfc #000000 #000000;
#X obj 972 1044 dac~;
#X obj 977 950 readsf~ 2;
#X obj 1006 921 tgl 19 0 empty empty empty 0 -10 0 12 #fcfcfc #000000 #000000 0 1;
#X obj 974 825 select 1;
#X floatatom 978 792 5 0 0 0 - - - 0;
#X obj 973 1010 rev1~;
#X obj 978 761 > 1;
#X obj 1025 564 bng 19 250 50 0 empty empty empty 0 -10 0 12 #fcfcfc #000000 #000000;
#X obj 1025 749 dac~;
#X obj 1030 655 readsf~ 2;
#X obj 1059 626 tgl 19 0 empty empty empty 0 -10 0 12 #fcfcfc #000000 #000000 0 1;
#X obj 1027 530 select 1;
#X floatatom 1031 497 5 0 0 0 - - - 0;
#X obj 1026 715 rev1~;
#X obj 1031 466 > 1;
#X obj 1152 536 bng 19 250 50 0 empty empty empty 0 -10 0 12 #fcfcfc #000000 #000000;
#X obj 1152 721 dac~;
#X obj 1157 627 readsf~ 2;
#X obj 1186 598 tgl 19 0 empty empty empty 0 -10 0 12 #fcfcfc #000000 #000000 0 1;
#X obj 1154 502 select 1;
#X floatatom 1158 469 5 0 0 0 - - - 0;
#X obj 1153 687 rev1~;
#X obj 1158 438 > 1;
#X obj 1271 564 bng 19 250 50 0 empty empty empty 0 -10 0 12 #fcfcfc #000000 #000000;
#X obj 1271 749 dac~;
#X obj 1276 655 readsf~ 2;
#X obj 1305 626 tgl 19 0 empty empty empty 0 -10 0 12 #fcfcfc #000000 #000000 0 1;
#X obj 1273 530 select 1;
#X floatatom 1277 497 5 0 0 0 - - - 0;
#X obj 1272 715 rev1~;
#X obj 1277 466 > 1;
#X obj 1404 535 bng 19 250 50 0 empty empty empty 0 -10 0 12 #fcfcfc #000000 #000000;
#X obj 1404 720 dac~;
#X obj 1409 626 readsf~ 2;
#X obj 1438 597 tgl 19 0 empty empty empty 0 -10 0 12 #fcfcfc #000000 #000000 0 1;
#X obj 1406 501 select 1;
#X floatatom 1410 468 5 0 0 0 - - - 0;
#X obj 1405 686 rev1~;
#X obj 1410 437 > 1;
#X obj 1523 560 bng 19 250 50 0 empty empty empty 0 -10 0 12 #fcfcfc #000000 #000000;
#X obj 1523 745 dac~;
#X obj 1528 651 readsf~ 2;
#X obj 1557 622 tgl 19 0 empty empty empty 0 -10 0 12 #fcfcfc #000000 #000000 0 1;
#X obj 1525 526 select 1;
#X floatatom 1529 493 5 0 0 0 - - - 0;
#X obj 1524 711 rev1~;
#X obj 1529 462 > 1;
#X msg 33 568 open sound/notes/000_0.wav \, 1;
#X msg 152 595 open sound/notes/001_1.wav \, 1;
#X msg 286 562 open sound/notes/002_10.wav \, 1;
#X msg 402 588 open sound/notes/003_11.wav \, 1;
#X msg 535 563 open sound/notes/004_12.wav \, 1;
#X msg 472 895 open sound/notes/005_13.wav \, 1;
#X msg 593 865 open sound/notes/006_14.wav \, 1;
#X msg 720 892 open sound/notes/007_2.wav \, 1;
#X msg 831 866 open sound/notes/008_3.wav \, 1;
#X msg 974 891 open sound/notes/009_4.wav \, 1;
#X msg 1026 592 open sound/notes/010_5.wav \, 1;
#X msg 1146 567 open sound/notes/011_6.wav \, 1;
#X msg 1265 592 open sound/notes/012_7.wav \, 1;
#X msg 1405 564 open sound/notes/013_8.wav \, 1;
#X msg 1516 595 open sound/notes/014_9.wav \, 1;
#X floatatom 903 603 5 0 0 0 - - - 0;
#X obj 899 532 loadbang;
#X msg 900 565 10;
#X connect 0 0 2 0;
#X connect 1 0 0 0;
#X connect 2 0 3 0;
#X connect 2 0 4 0;
#X connect 3 0 5 0;
#X connect 5 0 6 0;
#X connect 6 0 24 0;
#X connect 7 0 236 0;
#X connect 9 0 14 0;
#X connect 10 0 9 0;
#X connect 11 0 7 0;
#X connect 12 0 11 0;
#X connect 13 0 1 0;
#X connect 14 0 8 0;
#X connect 14 0 8 1;
#X connect 15 0 64 0;
#X connect 15 0 72 0;
#X connect 16 0 23 0;
#X connect 17 0 66 0;
#X connect 17 0 73 0;
#X connect 18 0 25 0;
#X connect 19 0 68 0;
#X connect 19 0 74 0;
#X connect 20 0 26 0;
#X connect 21 0 76 0;
#X connect 21 0 78 0;
#X connect 22 0 49 0;
#X connect 23 0 17 0;
#X connect 23 1 18 0;
#X connect 24 0 15 0;
#X connect 24 1 16 0;
#X connect 25 0 19 0;
#X connect 25 1 20 0;
#X connect 26 0 21 0;
#X connect 26 1 22 0;
#X connect 27 0 80 0;
#X connect 27 0 82 0;
#X connect 28 0 50 0;
#X connect 29 0 84 0;
#X connect 29 0 86 0;
#X connect 30 0 51 0;
#X connect 31 0 88 0;
#X connect 31 0 90 0;
#X connect 32 0 52 0;
#X connect 33 0 92 0;
#X connect 33 0 94 0;
#X connect 34 0 53 0;
#X connect 35 0 96 0;
#X connect 35 0 98 0;
#X connect 36 0 54 0;
#X connect 37 0 100 0;
#X connect 37 0 102 0;
#X connect 38 0 55 0;
#X connect 39 0 104 0;
#X connect 39 0 106 0;
#X connect 40 0 56 0;
#X connect 41 0 108 0;
#X connect 41 0 110 0;
#X connect 42 0 57 0;
#X connect 43 0 112 0;
#X connect 43 0 114 0;
#X connect 44 0 58 0;
#X connect 45 0 116 0;
#X connect 45 0 118 0;
#X connect 46 0 59 0;
#X connect 47 0 120 0;
#X connect 47 0 122 0;
#X connect 48 0 62 0;
#X connect 49 0 27 0;
#X connect 49 1 28 0;
#X connect 50 0 29 0;
#X connect 50 1 30 0;
#X connect 51 0 31 0;
#X connect 51 1 32 0;
#X connect 52 0 33 0;
#X connect 52 1 34 0;
#X connect 53 0 35 0;
#X connect 53 1 36 0;
#X connect 54 0 37 0;
#X connect 54 1 38 0;
#X connect 55 0 39 0;
#X connect 55 1 40 0;
#X connect 56 0 41 0;
#X connect 56 1 42 0;
#X connect 57 0 43 0;
#X connect 57 1 44 0;
#X connect 58 0 45 0;
#X connect 58 1 46 0;
#X connect 59 0 47 0;
#X connect 59 1 48 0;
#X connect 62 0 60 0;
#X connect 62 1 61 0;
#X connect 63 0 123 0;
#X connect 64 0 69 0;
#X connect 65 0 131 0;
#X connect 66 0 70 0;
#X connect 67 0 139 0;
#X connect 68 0 71 0;
#X connect 69 0 63 0;
#X connect 70 0 65 0;
#X connect 71 0 67 0;
#X connect 72 0 64 1;
#X connect 73 0 66 1;
#X connect 74 0 68 1;
#X connect 75 0 147 0;
#X connect 76 0 77 0;
#X connect 77 0 75 0;
#X connect 78 0 76 1;
#X connect 79 0 155 0;
#X connect 80 0 81 0;
#X connect 81 0 79 0;
#X connect 82 0 80 1;
#X connect 83 0 163 0;
#X connect 84 0 85 0;
#X connect 85 0 83 0;
#X connect 86 0 84 1;
#X connect 87 0 171 0;
#X connect 88 0 89 0;
#X connect 89 0 87 0;
#X connect 90 0 88 1;
#X connect 91 0 179 0;
#X connect 92 0 93 0;
#X connect 93 0 91 0;
#X connect 94 0 92 1;
#X connect 95 0 187 0;
#X connect 96 0 97 0;
#X connect 97 0 95 0;
#X connect 98 0 96 1;
#X connect 99 0 195 0;
#X connect 100 0 101 0;
#X connect 101 0 99 0;
#X connect 102 0 100 1;
#X connect 103 0 203 0;
#X connect 104 0 105 0;
#X connect 105 0 103 0;
#X connect 106 0 104 1;
#X connect 107 0 211 0;
#X connect 108 0 109 0;
#X connect 109 0 107 0;
#X connect 110 0 108 1;
#X connect 111 0 219 0;
#X connect 112 0 113 0;
#X connect 113 0 111 0;
#X connect 114 0 112 1;
#X connect 115 0 227 0;
#X connect 116 0 117 0;
#X connect 117 0 115 0;
#X connect 118 0 116 1;
#X connect 119 0 235 0;
#X connect 120 0 121 0;
#X connect 121 0 119 0;
#X connect 122 0 120 1;
#X connect 123 0 12 0;
#X connect 124 0 237 0;
#X connect 126 0 130 0;
#X connect 127 0 126 0;
#X connect 128 0 124 0;
#X connect 129 0 128 0;
#X connect 130 0 125 0;
#X connect 130 0 125 1;
#X connect 131 0 129 0;
#X connect 132 0 238 0;
#X connect 134 0 138 0;
#X connect 135 0 134 0;
#X connect 136 0 132 0;
#X connect 137 0 136 0;
#X connect 138 0 133 0;
#X connect 138 0 133 1;
#X connect 139 0 137 0;
#X connect 140 0 239 0;
#X connect 142 0 146 0;
#X connect 143 0 142 0;
#X connect 144 0 140 0;
#X connect 145 0 144 0;
#X connect 146 0 141 0;
#X connect 146 0 141 1;
#X connect 147 0 145 0;
#X connect 148 0 240 0;
#X connect 150 0 154 0;
#X connect 151 0 150 0;
#X connect 152 0 148 0;
#X connect 153 0 152 0;
#X connect 154 0 149 0;
#X connect 154 0 149 1;
#X connect 155 0 153 0;
#X connect 156 0 241 0;
#X connect 158 0 162 0;
#X connect 159 0 158 0;
#X connect 160 0 156 0;
#X connect 161 0 160 0;
#X connect 162 0 157 0;
#X connect 162 0 157 1;
#X connect 163 0 161 0;
#X connect 164 0 242 0;
#X connect 166 0 170 0;
#X connect 167 0 166 0;
#X connect 168 0 164 0;
#X connect 169 0 168 0;
#X connect 170 0 165 0;
#X connect 170 0 165 1;
#X connect 171 0 169 0;
#X connect 172 0 243 0;
#X connect 174 0 178 0;
#X connect 175 0 174 0;
#X connect 176 0 172 0;
#X connect 177 0 176 0;
#X connect 178 0 173 0;
#X connect 178 0 173 1;
#X connect 179 0 177 0;
#X connect 180 0 244 0;
#X connect 182 0 186 0;
#X connect 183 0 182 0;
#X connect 184 0 180 0;
#X connect 185 0 184 0;
#X connect 186 0 181 0;
#X connect 186 0 181 1;
#X connect 187 0 185 0;
#X connect 188 0 245 0;
#X connect 190 0 194 0;
#X connect 191 0 190 0;
#X connect 192 0 188 0;
#X connect 193 0 192 0;
#X connect 194 0 189 0;
#X connect 194 0 189 1;
#X connect 195 0 193 0;
#X connect 196 0 246 0;
#X connect 198 0 202 0;
#X connect 199 0 198 0;
#X connect 200 0 196 0;
#X connect 201 0 200 0;
#X connect 202 0 197 0;
#X connect 202 0 197 1;
#X connect 203 0 201 0;
#X connect 204 0 247 0;
#X connect 206 0 210 0;
#X connect 207 0 206 0;
#X connect 208 0 204 0;
#X connect 209 0 208 0;
#X connect 210 0 205 0;
#X connect 210 0 205 1;
#X connect 211 0 209 0;
#X connect 212 0 248 0;
#X connect 214 0 218 0;
#X connect 215 0 214 0;
#X connect 216 0 212 0;
#X connect 217 0 216 0;
#X connect 218 0 213 0;
#X connect 218 0 213 1;
#X connect 219 0 217 0;
#X connect 220 0 249 0;
#X connect 222 0 226 0;
#X connect 223 0 222 0;
#X connect 224 0 220 0;
#X connect 225 0 224 0;
#X connect 226 0 221 0;
#X connect 226 0 221 1;
#X connect 227 0 225 0;
#X connect 228 0 250 0;
#X connect 230 0 234 0;
#X connect 231 0 230 0;
#X connect 232 0 228 0;
#X connect 233 0 232 0;
#X connect 234 0 229 0;
#X connect 234 0 229 1;
#X connect 235 0 233 0;
#X connect 236 0 9 0;
#X connect 237 0 126 0;
#X connect 238 0 134 0;
#X connect 239 0 142 0;
#X connect 240 0 150 0;
#X connect 241 0 158 0;
#X connect 242 0 166 0;
#X connect 243 0 174 0;
#X connect 244 0 182 0;
#X connect 245 0 190 0;
#X connect 246 0 198 0;
#X connect 247 0 206 0;
#X connect 248 0 214 0;
#X connect 249 0 222 0;
#X connect 250 0 230 0;
#X connect 251 0 162 1;
#X connect 251 0 170 1;
#X connect 251 0 178 1;
#X connect 251 0 186 1;
#X connect 251 0 194 1;
#X connect 251 0 202 1;
#X connect 251 0 210 1;
#X connect 251 0 218 1;
#X connect 251 0 226 1;
#X connect 251 0 234 1;
#X connect 251 0 154 1;
#X connect 251 0 146 1;
#X connect 251 0 138 1;
#X connect 251 0 130 1;
#X connect 251 0 14 1;
#X connect 252 0 253 0;
#X connect 253 0 251 0;
