#N canvas 883 179 619 647 12;
#X obj 15 110 oscparse;
#X obj 81 110 print;
#X obj 15 84 netreceive -u -b;
#X obj 15 188 route sensor;
#X obj 15 146 list trim;
#X floatatom 13 226 5 0 0 0 - - - 0;
#X msg 15 58 listen 4560;
#X obj 363 612 dac~ 1 2;
#X obj 14 331 -;
#X floatatom 15 360 5 0 0 0 - - - 0;
#X obj 14 454 bng 19 250 50 0 empty empty empty 0 -10 0 12 #fcfcfc #000000 #000000;
#X floatatom 71 291 5 0 0 0 - - - 0;
#X obj 14 423 sel 0;
#X obj 15 488 s high_rhythm;
#X obj 363 572 clip~ -0.9 0.9;
#X obj 363 528 hip~ 1;
#X obj 420 527 hip~ 1;
#X obj 470 573 clip~ -0.9 0.9;
#X obj 361 383 *~;
#X obj 415 341 line~;
#X obj 415 180 r high_rhythm;
#X obj 478 216 bng 15 250 50 0 empty empty empty 17 7 0 10 #fcfcfc #000000 #000000;
#X floatatom 162 233 5 0 0 0 - - - 0;
#X obj 361 311 osc~;
#X obj 15 13 loadbang;
#X obj 71 263 pipe 100;
#X obj 179 133 mapping/autoscale;
#X floatatom 192 89 8 0 0 0 - - - 0;
#X floatatom 256 89 8 0 0 0 - - - 0;
#X floatatom 179 160 5 0 0 0 - - - 0;
#X obj 162 204 * 1;
#X obj 361 343 *~ 0.6;
#X obj 125 423 expr if ($f1 < -600 \, 0 \, 1);
#X obj 125 455 sel 0;
#X obj 126 489 s noise_vol;
#X obj 414 374 r noise_vol;
#X obj 507 373 r normal_vol;
#X obj 226 488 s normal_vol;
#X obj 225 454 sel 1;
#X msg 354 62 \; pd dsp \$1;
#X obj 354 31 tgl 19 0 empty empty empty 0 -10 0 12 #fcfcfc #000000 #000000 0 1;
#X msg 191 55 6000;
#X obj 161 262 line~;
#X msg 415 273 1 75;
#X obj 478 272 del 75;
#X msg 478 304 0 75;
#X msg 255 54 14000;
#X obj 14 392 expr if ($f1 < -700 \, 2 \, if ($f1 < -5 \, 0 \, 1));
#X obj 121 543 bng 19 250 50 0 empty empty empty 0 -10 0 12 #fcfcfc #000000 #000000;
#X obj 222 542 bng 19 250 50 0 empty empty empty 0 -10 0 12 #fcfcfc #000000 #000000;
#X msg 413 437 1 75;
#X obj 454 406 del 75;
#X msg 454 438 0 75;
#X obj 413 470 line~;
#X obj 362 491 *~;
#X msg 508 436 1 75;
#X obj 549 405 del 75;
#X msg 549 437 0 75;
#X obj 508 469 line~;
#X connect 0 0 4 0;
#X connect 2 0 0 0;
#X connect 3 0 5 0;
#X connect 4 0 3 0;
#X connect 5 0 8 0;
#X connect 5 0 25 0;
#X connect 5 0 26 0;
#X connect 6 0 2 0;
#X connect 8 0 9 0;
#X connect 9 0 32 0;
#X connect 9 0 30 0;
#X connect 9 0 47 0;
#X connect 10 0 13 0;
#X connect 11 0 8 1;
#X connect 12 0 10 0;
#X connect 14 0 7 0;
#X connect 15 0 14 0;
#X connect 16 0 17 0;
#X connect 17 0 7 1;
#X connect 18 0 54 0;
#X connect 19 0 18 1;
#X connect 20 0 44 0;
#X connect 20 0 43 0;
#X connect 21 0 44 0;
#X connect 21 0 43 0;
#X connect 22 0 42 0;
#X connect 23 0 31 0;
#X connect 24 0 6 0;
#X connect 24 0 41 0;
#X connect 24 0 46 0;
#X connect 24 0 40 0;
#X connect 25 0 11 0;
#X connect 26 0 29 0;
#X connect 27 0 26 1;
#X connect 28 0 26 2;
#X connect 29 0 30 1;
#X connect 30 0 22 0;
#X connect 31 0 18 0;
#X connect 32 0 33 0;
#X connect 32 0 38 0;
#X connect 33 0 34 0;
#X connect 33 0 48 0;
#X connect 35 0 50 0;
#X connect 35 0 51 0;
#X connect 36 0 55 0;
#X connect 36 0 56 0;
#X connect 38 0 37 0;
#X connect 38 0 49 0;
#X connect 40 0 39 0;
#X connect 41 0 27 0;
#X connect 42 0 23 0;
#X connect 43 0 19 0;
#X connect 44 0 45 0;
#X connect 45 0 19 0;
#X connect 46 0 28 0;
#X connect 47 0 12 0;
#X connect 50 0 53 0;
#X connect 51 0 52 0;
#X connect 52 0 53 0;
#X connect 53 0 54 1;
#X connect 54 0 16 0;
#X connect 54 0 15 0;
#X connect 55 0 58 0;
#X connect 56 0 57 0;
#X connect 57 0 58 0;
#X connect 58 0 54 1;
