#N canvas 829 139 555 524 12;
#X obj 15 110 oscparse;
#X obj 108 145 print;
#X obj 15 67 netreceive -u -b;
#X obj 15 188 route sensor;
#X obj 15 146 list trim;
#X floatatom 14 226 5 0 0 0 - - - 0;
#X msg 15 41 listen 4560;
#X obj 340 66 metro, f 6;
#X obj 340 39 tgl 19 0 empty empty empty 0 -10 0 12 #fcfcfc #000000 #000000 0 1;
#X floatatom 378 41 5 0 0 0 - - - 0;
#N canvas 549 416 412 344 tests 0;
#X obj 28 12 inlet;
#X obj 29 44 t b;
#X obj 59 79 del 3;
#X obj 26 114 1;
#X obj 60 113 0;
#X obj 29 197 *~, f 7;
#X obj 187 12 loadbang;
#X obj 188 45 -0.25;
#X obj 189 78 line~;
#X obj 282 16 inlet;
#X obj 189 112 cos~;
#X floatatom 284 109 5 0 0 0 - - - 0;
#X obj 285 84 inlet;
#X obj 284 144 mtof;
#X floatatom 284 171 5 0 0 0 - - - 0;
#X msg 282 51 -0.25 \, 0.25 \$1;
#X obj 188 146 *~ 0.1;
#X obj 190 193 *~;
#X obj 325 272 *~;
#X obj 284 231 *~;
#X obj 286 271 *~;
#X obj 190 229 hip~ 5;
#X obj 33 304 outlet~;
#X obj 29 154 biquad~ 0 0 1 -10 0;
#X obj 285 200 osc~ 10000;
#X connect 0 0 1 0;
#X connect 1 0 2 0;
#X connect 1 0 3 0;
#X connect 2 0 4 0;
#X connect 3 0 5 1;
#X connect 3 0 23 0;
#X connect 4 0 5 1;
#X connect 4 0 23 0;
#X connect 5 0 22 0;
#X connect 6 0 7 0;
#X connect 7 0 8 0;
#X connect 8 0 10 0;
#X connect 9 0 15 0;
#X connect 10 0 16 0;
#X connect 11 0 13 0;
#X connect 12 0 11 0;
#X connect 13 0 14 0;
#X connect 14 0 24 0;
#X connect 15 0 8 0;
#X connect 16 0 17 0;
#X connect 17 0 21 0;
#X connect 18 0 17 1;
#X connect 19 0 18 1;
#X connect 19 0 20 0;
#X connect 19 0 20 1;
#X connect 19 0 17 1;
#X connect 20 0 17 1;
#X connect 23 0 5 0;
#X connect 24 0 19 0;
#X connect 24 0 19 1;
#X connect 24 0 18 0;
#X connect 24 0 17 1;
#X restore 221 129 pd tests;
#X obj 356 126 loadbang;
#X floatatom 356 182 5 0 0 0 - - - 0;
#X floatatom 297 181 5 0 0 0 - - - 0;
#X obj 222 214 vcf~, f 20;
#X obj 338 487 dac~ 1 2;
#X msg 379 14 set 88.23;
#X obj 339 91 random 5000;
#X msg 356 150 5;
#X floatatom 295 127 5 0 0 0 - - - 0;
#X obj 14 331 -;
#X floatatom 15 360 5 0 0 0 - - - 0;
#X obj 15 449 bng 19 250 50 0 empty empty empty 0 -10 0 12 #fcfcfc #000000 #000000;
#X floatatom 71 297 5 0 0 0 - - - 0;
#X obj 71 263 pipe 10;
#X obj 15 418 sel 0;
#X obj 297 152 + 5000;
#X text 247 39 test_pattern;
#X obj 15 480 s high_rhythm;
#X obj 338 452 clip~ -0.9 0.9;
#X obj 338 408 hip~ 1;
#X obj 395 407 hip~ 1;
#X obj 445 453 clip~ -0.9 0.9;
#X obj 339 330 *~;
#X obj 432 363 line~;
#X msg 432 295 1 10;
#X obj 495 294 del 10;
#X msg 495 326 0 10;
#X obj 339 290 *~ 0.3;
#X obj 432 202 r high_rhythm;
#X obj 339 358 *~ 0.6;
#X obj 495 238 bng 15 250 50 0 empty empty empty 17 7 0 10 #fcfcfc #000000 #000000;
#X floatatom 179 303 5 0 0 0 - - - 0;
#X obj 205 479 sel 1;
#X obj 339 258 osc~;
#X obj 179 274 * 1000;
#X obj 15 13 loadbang;
#X obj 15 387 expr if ($f1 > 100 \, 2 \, if ($f1 < -2 \, 0 \, 1));
#X msg 178 433 1;
#X connect 0 0 1 0;
#X connect 0 0 4 0;
#X connect 2 0 0 0;
#X connect 3 0 5 0;
#X connect 4 0 3 0;
#X connect 5 0 20 0;
#X connect 5 0 24 0;
#X connect 6 0 2 0;
#X connect 7 0 10 0;
#X connect 7 0 17 0;
#X connect 8 0 7 0;
#X connect 9 0 7 1;
#X connect 10 0 14 0;
#X connect 11 0 18 0;
#X connect 12 0 14 2;
#X connect 13 0 14 1;
#X connect 16 0 9 0;
#X connect 17 0 19 0;
#X connect 18 0 12 0;
#X connect 19 0 26 0;
#X connect 20 0 21 0;
#X connect 21 0 45 0;
#X connect 21 0 47 0;
#X connect 22 0 28 0;
#X connect 23 0 20 1;
#X connect 24 0 23 0;
#X connect 25 0 22 0;
#X connect 25 0 48 0;
#X connect 26 0 13 0;
#X connect 29 0 15 0;
#X connect 30 0 29 0;
#X connect 31 0 32 0;
#X connect 32 0 15 1;
#X connect 33 0 40 0;
#X connect 34 0 33 1;
#X connect 35 0 34 0;
#X connect 36 0 37 0;
#X connect 37 0 34 0;
#X connect 38 0 33 0;
#X connect 39 0 35 0;
#X connect 39 0 36 0;
#X connect 40 0 30 0;
#X connect 40 0 31 0;
#X connect 41 0 35 0;
#X connect 41 0 36 0;
#X connect 42 0 44 0;
#X connect 43 0 8 0;
#X connect 44 0 38 0;
#X connect 45 0 42 0;
#X connect 46 0 6 0;
#X connect 47 0 25 0;
#X connect 48 0 43 0;
