#N canvas 0 44 1172 1097 12;
#X obj 46 83 netreceive -u -b;
#X msg 46 36 listen 4560;
#X obj 45 124 oscparse;
#X obj 47 174 list trim;
#X obj 152 174 print;
#X obj 48 223 route sensor;
#X floatatom 50 265 5 0 0 0 - - - 0;
#X obj 81 802 bng 19 250 50 0 empty empty empty 0 -10 0 12 #fcfcfc #000000 #000000;
#X obj 92 990 dac~;
#X obj 92 912 readsf~ 2;
#X obj 112 878 tgl 19 0 empty empty empty 0 -10 0 12 #fcfcfc #000000 #000000 0 1;
#X obj 83 768 select 1;
#X floatatom 686 244 5 0 0 0 - - - 0;
#X obj 686 207 expr if ($f1 > 29 \, 1 \, if ($f1 < 30 \, 1 \, 0));
#X floatatom 87 735 5 0 0 0 - - - 0;
#X obj 277 804 bng 19 250 50 0 empty empty empty 0 -10 0 12 #fcfcfc #000000 #000000;
#X obj 286 985 dac~;
#X obj 288 914 readsf~ 2;
#X obj 308 880 tgl 19 0 empty empty empty 0 -10 0 12 #fcfcfc #000000 #000000 0 1;
#X obj 279 770 select 1;
#X floatatom 283 737 5 0 0 0 - - - 0;
#X obj 476 805 bng 19 250 50 0 empty empty empty 0 -10 0 12 #fcfcfc #000000 #000000;
#X obj 486 966 dac~;
#X obj 487 915 readsf~ 2;
#X obj 507 881 tgl 19 0 empty empty empty 0 -10 0 12 #fcfcfc #000000 #000000 0 1;
#X obj 478 771 select 1;
#X floatatom 482 738 5 0 0 0 - - - 0;
#X obj 673 808 bng 19 250 50 0 empty empty empty 0 -10 0 12 #fcfcfc #000000 #000000;
#X obj 683 969 dac~;
#X obj 684 918 readsf~ 2;
#X obj 704 884 tgl 19 0 empty empty empty 0 -10 0 12 #fcfcfc #000000 #000000 0 1;
#X obj 675 774 select 1;
#X floatatom 679 741 5 0 0 0 - - - 0;
#X obj 872 810 bng 19 250 50 0 empty empty empty 0 -10 0 12 #fcfcfc #000000 #000000;
#X obj 882 971 dac~;
#X obj 883 920 readsf~ 2;
#X obj 903 886 tgl 19 0 empty empty empty 0 -10 0 12 #fcfcfc #000000 #000000 0 1;
#X obj 874 776 select 1;
#X floatatom 878 743 5 0 0 0 - - - 0;
#X floatatom 242 241 5 0 0 0 - - - 0;
#X obj 143 274 -;
#X obj 143 302 abs;
#X floatatom 152 406 5 0 0 0 - - - 0;
#X floatatom 321 312 5 0 0 0 - - - 0;
#X floatatom 324 365 5 0 0 0 - - - 0;
#X floatatom 369 364 5 0 0 0 - - - 0;
#X floatatom 390 414 5 0 0 0 - - - 0;
#X floatatom 437 415 5 0 0 0 - - - 0;
#X obj 323 336 moses 3;
#X floatatom 511 465 5 0 0 0 - - - 0;
#X floatatom 558 466 5 0 0 0 - - - 0;
#X floatatom 244 671 5 0 0 0 - - - 0;
#X obj 243 604 -;
#X floatatom 388 659 5 0 0 0 - - - 0;
#X obj 389 593 -;
#X floatatom 515 662 5 0 0 0 - - - 0;
#X obj 516 596 -;
#X obj 45 1027 >= 3;
#X obj 100 1027 < 4;
#X obj 241 1029 >= 4;
#X obj 296 1029 < 5;
#X obj 440 1030 >= 5;
#X obj 495 1030 < 6;
#X obj 637 1033 >= 6;
#X obj 692 1033 < 7;
#X obj 836 1035 >= 7;
#X obj 891 1035 < 8;
#X obj 240 636 abs;
#X obj 388 628 abs;
#X obj 515 628 abs;
#X obj 279 603 pipe 10;
#X obj 423 591 pipe 10;
#X obj 550 594 pipe 10;
#X obj 389 389 moses 5;
#X obj 510 440 moses 7;
#X obj 280 705 > 0;
#X obj 481 702 > 0;
#X obj 87 704 > 0;
#X obj 676 703 > 0;
#X obj 874 706 > 0;
#X floatatom 653 514 5 0 0 0 - - - 0;
#X floatatom 700 515 5 0 0 0 - - - 0;
#X floatatom 812 563 5 0 0 0 - - - 0;
#X floatatom 859 564 5 0 0 0 - - - 0;
#X obj 652 489 moses 8;
#X floatatom 651 661 5 0 0 0 - - - 0;
#X obj 652 595 -;
#X obj 651 627 abs;
#X obj 686 593 pipe 10;
#X floatatom 815 664 5 0 0 0 - - - 0;
#X obj 816 598 -;
#X obj 815 630 abs;
#X obj 850 596 pipe 10;
#X obj 811 538 moses 9;
#X msg 288 846 open sound/bottle/001_10.wav \, 1;
#X msg 481 875 open sound/bottle/002_11.wav \, 1;
#X msg 666 849 open sound/bottle/003_12.wav \, 1;
#X msg 823 876 open sound/bottle/004_13.wav \, 1;
#X msg 77 869 open sound/bottle/008_5.wav \, 1;
#X obj 242 209 pipe 10;
#X obj 175 336 *;
#X floatatom 214 307 5 0 0 0 - - - 0;
#X obj 236 13 loadbang;
#X msg 213 277 0.7;
#X connect 0 0 2 0;
#X connect 1 0 0 0;
#X connect 2 0 3 0;
#X connect 2 0 4 0;
#X connect 3 0 5 0;
#X connect 5 0 6 0;
#X connect 6 0 40 0;
#X connect 6 0 99 0;
#X connect 7 0 98 0;
#X connect 9 0 8 0;
#X connect 9 0 8 1;
#X connect 10 0 9 0;
#X connect 11 0 7 0;
#X connect 13 0 12 0;
#X connect 14 0 11 0;
#X connect 15 0 94 0;
#X connect 17 0 16 0;
#X connect 17 0 16 1;
#X connect 18 0 17 0;
#X connect 19 0 15 0;
#X connect 20 0 19 0;
#X connect 21 0 95 0;
#X connect 23 0 22 0;
#X connect 23 0 22 1;
#X connect 24 0 23 0;
#X connect 25 0 21 0;
#X connect 26 0 25 0;
#X connect 27 0 96 0;
#X connect 29 0 28 0;
#X connect 29 0 28 1;
#X connect 30 0 29 0;
#X connect 31 0 27 0;
#X connect 32 0 31 0;
#X connect 33 0 97 0;
#X connect 35 0 34 0;
#X connect 35 0 34 1;
#X connect 36 0 35 0;
#X connect 37 0 33 0;
#X connect 38 0 37 0;
#X connect 39 0 40 1;
#X connect 40 0 41 0;
#X connect 41 0 100 0;
#X connect 42 0 43 0;
#X connect 43 0 48 0;
#X connect 44 0 52 0;
#X connect 44 0 70 0;
#X connect 45 0 73 0;
#X connect 46 0 54 0;
#X connect 46 0 71 0;
#X connect 47 0 74 0;
#X connect 48 0 44 0;
#X connect 48 1 45 0;
#X connect 49 0 56 0;
#X connect 49 0 72 0;
#X connect 50 0 84 0;
#X connect 51 0 77 0;
#X connect 52 0 67 0;
#X connect 53 0 75 0;
#X connect 54 0 68 0;
#X connect 55 0 76 0;
#X connect 56 0 69 0;
#X connect 67 0 51 0;
#X connect 68 0 53 0;
#X connect 69 0 55 0;
#X connect 70 0 52 1;
#X connect 71 0 54 1;
#X connect 72 0 56 1;
#X connect 73 0 46 0;
#X connect 73 1 47 0;
#X connect 74 0 49 0;
#X connect 74 1 50 0;
#X connect 75 0 20 0;
#X connect 76 0 26 0;
#X connect 77 0 14 0;
#X connect 78 0 32 0;
#X connect 79 0 38 0;
#X connect 80 0 86 0;
#X connect 80 0 88 0;
#X connect 81 0 93 0;
#X connect 82 0 90 0;
#X connect 82 0 92 0;
#X connect 84 0 80 0;
#X connect 84 1 81 0;
#X connect 85 0 78 0;
#X connect 86 0 87 0;
#X connect 87 0 85 0;
#X connect 88 0 86 1;
#X connect 89 0 79 0;
#X connect 90 0 91 0;
#X connect 91 0 89 0;
#X connect 92 0 90 1;
#X connect 93 0 82 0;
#X connect 93 1 83 0;
#X connect 94 0 17 0;
#X connect 95 0 23 0;
#X connect 96 0 29 0;
#X connect 97 0 35 0;
#X connect 98 0 9 0;
#X connect 99 0 39 0;
#X connect 100 0 42 0;
#X connect 101 0 100 1;
#X connect 102 0 103 0;
#X connect 102 0 1 0;
#X connect 103 0 101 0;
