#N canvas 0 25 1680 997 12;
#X obj 46 83 netreceive -u -b;
#X obj 45 124 oscparse;
#X obj 43 165 list trim;
#X obj 121 156 print;
#X obj 43 199 route sensor;
#X floatatom 44 227 5 0 0 0 - - - 0;
#X obj 197 525 bng 19 250 50 0 empty empty empty 0 -10 0 12 #fcfcfc #000000 #000000;
#X obj 208 713 dac~;
#X obj 205 637 readsf~ 2;
#X obj 228 601 tgl 19 0 empty empty empty 0 -10 0 12 #fcfcfc #000000 #000000 0 1;
#X obj 199 491 select 1;
#X floatatom 1163 123 5 0 0 0 - - - 0;
#X obj 1163 86 expr if ($f1 > 29 \, 1 \, if ($f1 < 30 \, 1 \, 0));
#X floatatom 203 458 5 0 0 0 - - - 0;
#X obj 494 518 bng 19 250 50 0 empty empty empty 0 -10 0 12 #fcfcfc #000000 #000000;
#X obj 443 705 dac~;
#X obj 447 639 readsf~ 2;
#X obj 495 615 tgl 19 0 empty empty empty 0 -10 0 12 #fcfcfc #000000 #000000 0 1;
#X obj 496 484 select 1;
#X floatatom 500 451 5 0 0 0 - - - 0;
#X obj 690 528 bng 19 250 50 0 empty empty empty 0 -10 0 12 #fcfcfc #000000 #000000;
#X obj 700 722 dac~;
#X obj 701 647 readsf~ 2;
#X obj 721 623 tgl 19 0 empty empty empty 0 -10 0 12 #fcfcfc #000000 #000000 0 1;
#X obj 692 494 select 1;
#X floatatom 696 461 5 0 0 0 - - - 0;
#X obj 954 562 bng 19 250 50 0 empty empty empty 0 -10 0 12 #fcfcfc #000000 #000000;
#X obj 962 742 dac~;
#X obj 963 667 readsf~ 2;
#X obj 983 633 tgl 19 0 empty empty empty 0 -10 0 12 #fcfcfc #000000 #000000 0 1;
#X obj 954 523 select 1;
#X floatatom 958 490 5 0 0 0 - - - 0;
#X obj 1192 565 bng 19 250 50 0 empty empty empty 0 -10 0 12 #fcfcfc #000000 #000000;
#X obj 1293 744 dac~;
#X obj 1249 658 readsf~ 2;
#X obj 1270 625 tgl 19 0 empty empty empty 0 -10 0 12 #fcfcfc #000000 #000000 0 1;
#X obj 1194 531 select 1;
#X floatatom 1198 498 5 0 0 0 - - - 0;
#X floatatom 101 272 5 0 0 0 - - - 0;
#X obj 43 280 -;
#X floatatom 437 35 5 0 0 0 - - - 0;
#X floatatom 440 88 5 0 0 0 - - - 0;
#X floatatom 485 87 5 0 0 0 - - - 0;
#X floatatom 506 137 5 0 0 0 - - - 0;
#X floatatom 553 138 5 0 0 0 - - - 0;
#X floatatom 725 188 5 0 0 0 - - - 0;
#X floatatom 772 189 5 0 0 0 - - - 0;
#X floatatom 360 394 5 0 0 0 - - - 0;
#X obj 359 327 -;
#X floatatom 504 382 5 0 0 0 - - - 0;
#X obj 505 316 -;
#X floatatom 729 385 5 0 0 0 - - - 0;
#X obj 730 319 -;
#X obj 161 750 >= 3;
#X obj 216 750 < 4;
#X obj 398 749 >= 4;
#X obj 453 749 < 5;
#X obj 654 753 >= 5;
#X obj 709 753 < 6;
#X obj 916 782 >= 6;
#X obj 971 782 < 7;
#X obj 1203 757 >= 7;
#X obj 1258 757 < 8;
#X obj 356 359 abs;
#X obj 504 351 abs;
#X obj 729 351 abs;
#X obj 397 290 pipe 10;
#X obj 539 314 pipe 10;
#X obj 764 317 pipe 10;
#X obj 497 419 > 0;
#X obj 695 425 > 0;
#X obj 203 427 > 0;
#X obj 955 452 > 0;
#X obj 1194 461 > 0;
#X floatatom 932 263 5 0 0 0 - - - 0;
#X floatatom 979 264 5 0 0 0 - - - 0;
#X floatatom 1132 318 5 0 0 0 - - - 0;
#X floatatom 1179 319 5 0 0 0 - - - 0;
#X floatatom 930 410 5 0 0 0 - - - 0;
#X obj 931 344 -;
#X obj 930 376 abs;
#X obj 965 342 pipe 10;
#X floatatom 1135 419 5 0 0 0 - - - 0;
#X obj 1136 353 -;
#X obj 1135 385 abs;
#X obj 1170 351 pipe 10;
#X msg 450 591 open sound/bottle/001_10.wav \, 1;
#X msg 695 598 open sound/bottle/002_11.wav \, 1;
#X msg 945 598 open sound/bottle/003_12.wav \, 1;
#X msg 1190 598 open sound/bottle/004_13.wav \, 1;
#X msg 197 557 open sound/bottle/008_5.wav \, 1;
#X floatatom 166 312 5 0 0 0 - - - 0;
#X obj 236 13 loadbang;
#X msg 240 82 \; pd dsp \$1;
#X obj 240 51 tgl 19 0 empty empty empty 0 -10 0 12 #fcfcfc #000000 #000000 0 1;
#X obj 30 602 mapping/autoscale;
#X floatatom 43 558 8 0 0 0 - - - 0;
#X floatatom 107 558 8 0 0 0 - - - 0;
#X floatatom 30 629 5 0 0 0 - - - 0;
#X obj 27 3358 hip~;
#X obj 27 3382 lop~;
#X obj 37 3368 hip~;
#X obj 37 3392 lop~;
#X obj 47 3378 hip~;
#X obj 47 3402 lop~;
#X obj 57 3388 hip~;
#X obj 57 3412 lop~;
#X obj 67 3398 hip~;
#X obj 67 3422 lop~;
#X obj 77 3408 hip~;
#X obj 77 3432 lop~;
#X obj 87 3418 hip~;
#X obj 87 3442 lop~;
#X obj 97 3428 hip~;
#X obj 97 3452 lop~;
#X obj 107 3438 hip~;
#X obj 107 3462 lop~;
#X obj 117 3448 hip~;
#X obj 117 3472 lop~;
#X obj 127 3458 hip~;
#X obj 127 3482 lop~;
#X obj 137 3468 hip~;
#X obj 137 3492 lop~;
#X obj 147 3478 hip~;
#X obj 147 3502 lop~;
#X obj 157 3488 hip~;
#X obj 157 3512 lop~;
#X obj 167 3498 hip~;
#X obj 167 3522 lop~;
#X obj 177 3508 hip~;
#X obj 177 3532 lop~;
#X obj 187 3518 hip~;
#X obj 187 3542 lop~;
#X obj 197 3528 hip~;
#X obj 197 3552 lop~;
#X obj 207 3538 hip~;
#X obj 207 3562 lop~;
#X obj 217 3548 hip~;
#X obj 217 3572 lop~;
#X obj 227 3558 hip~;
#X obj 227 3582 lop~;
#X obj 237 3568 hip~;
#X obj 237 3592 lop~;
#X obj 247 3578 hip~;
#X obj 247 3602 lop~;
#X obj 257 3588 hip~;
#X obj 257 3612 lop~;
#X obj 267 3598 hip~;
#X obj 267 3622 lop~;
#X obj 277 3608 hip~;
#X obj 277 3632 lop~;
#X obj 287 3618 hip~;
#X obj 287 3642 lop~;
#X obj 208 679 *~;
#X msg 286 655 2;
#X obj 445 675 *~;
#X msg 557 654 1.5;
#X obj 701 680 *~;
#X msg 841 656 1;
#X obj 964 703 *~;
#X msg 1103 677 0.8;
#X obj 1297 705 *~;
#X msg 1369 675 0.5;
#X msg 170 286 1;
#X msg 46 36 listen 4560;
#X obj 439 59 moses 10;
#X obj 487 112 moses 20;
#X obj 724 163 moses 25;
#X obj 931 238 moses 30;
#X obj 1131 293 moses 50;
#X obj 101 244 pipe 100;
#X floatatom 34 393 5 0 0 0 - - - 0;
#X obj 41 340 abs;
#X msg 42 524 100;
#X obj 383 605 osc~;
#X msg 106 523 5000;
#X connect 0 0 1 0;
#X connect 1 0 2 0;
#X connect 1 0 3 0;
#X connect 2 0 4 0;
#X connect 4 0 5 0;
#X connect 5 0 39 0;
#X connect 5 0 40 0;
#X connect 5 0 170 0;
#X connect 6 0 90 0;
#X connect 6 0 154 0;
#X connect 8 0 153 0;
#X connect 9 0 8 0;
#X connect 10 0 6 0;
#X connect 12 0 11 0;
#X connect 13 0 10 0;
#X connect 14 0 86 0;
#X connect 14 0 156 0;
#X connect 16 0 155 0;
#X connect 17 0 16 0;
#X connect 18 0 14 0;
#X connect 19 0 18 0;
#X connect 20 0 87 0;
#X connect 20 0 158 0;
#X connect 22 0 157 0;
#X connect 23 0 22 0;
#X connect 24 0 20 0;
#X connect 25 0 24 0;
#X connect 26 0 88 0;
#X connect 26 0 160 0;
#X connect 28 0 159 0;
#X connect 29 0 28 0;
#X connect 30 0 26 0;
#X connect 31 0 30 0;
#X connect 32 0 89 0;
#X connect 32 0 162 0;
#X connect 34 0 161 0;
#X connect 35 0 34 0;
#X connect 36 0 32 0;
#X connect 37 0 36 0;
#X connect 38 0 39 1;
#X connect 39 0 172 0;
#X connect 40 0 165 0;
#X connect 41 0 48 0;
#X connect 41 0 66 0;
#X connect 42 0 166 0;
#X connect 43 0 50 0;
#X connect 43 0 67 0;
#X connect 44 0 167 0;
#X connect 45 0 52 0;
#X connect 45 0 68 0;
#X connect 46 0 168 0;
#X connect 47 0 71 0;
#X connect 47 0 95 0;
#X connect 48 0 63 0;
#X connect 49 0 69 0;
#X connect 50 0 64 0;
#X connect 51 0 70 0;
#X connect 52 0 65 0;
#X connect 63 0 47 0;
#X connect 64 0 49 0;
#X connect 65 0 51 0;
#X connect 66 0 48 1;
#X connect 67 0 50 1;
#X connect 68 0 52 1;
#X connect 69 0 19 0;
#X connect 70 0 25 0;
#X connect 71 0 13 0;
#X connect 72 0 31 0;
#X connect 73 0 37 0;
#X connect 74 0 79 0;
#X connect 74 0 81 0;
#X connect 75 0 169 0;
#X connect 76 0 83 0;
#X connect 76 0 85 0;
#X connect 78 0 72 0;
#X connect 79 0 80 0;
#X connect 80 0 78 0;
#X connect 81 0 79 1;
#X connect 82 0 73 0;
#X connect 83 0 84 0;
#X connect 84 0 82 0;
#X connect 85 0 83 1;
#X connect 86 0 16 0;
#X connect 87 0 22 0;
#X connect 88 0 28 0;
#X connect 89 0 34 0;
#X connect 90 0 8 0;
#X connect 92 0 163 0;
#X connect 92 0 164 0;
#X connect 92 0 94 0;
#X connect 92 0 175 0;
#X connect 92 0 173 0;
#X connect 94 0 93 0;
#X connect 95 0 98 0;
#X connect 96 0 95 1;
#X connect 97 0 95 2;
#X connect 98 0 174 0;
#X connect 153 0 7 0;
#X connect 153 0 7 1;
#X connect 154 0 153 1;
#X connect 155 0 15 0;
#X connect 155 0 15 1;
#X connect 156 0 155 1;
#X connect 157 0 21 0;
#X connect 157 0 21 1;
#X connect 158 0 157 1;
#X connect 159 0 27 0;
#X connect 159 0 27 1;
#X connect 160 0 159 1;
#X connect 161 0 33 0;
#X connect 161 0 33 1;
#X connect 162 0 161 1;
#X connect 163 0 91 0;
#X connect 164 0 0 0;
#X connect 165 0 41 0;
#X connect 165 1 42 0;
#X connect 166 0 43 0;
#X connect 166 1 44 0;
#X connect 167 0 45 0;
#X connect 167 1 46 0;
#X connect 168 0 74 0;
#X connect 168 1 75 0;
#X connect 169 0 76 0;
#X connect 169 1 77 0;
#X connect 170 0 38 0;
#X connect 171 0 95 0;
#X connect 172 0 171 0;
#X connect 173 0 96 0;
#X connect 174 0 153 1;
#X connect 174 0 155 1;
#X connect 174 0 157 1;
#X connect 174 0 159 1;
#X connect 174 0 161 1;
#X connect 175 0 97 0;
