#N canvas 2204 1188 619 647 12;
#X obj 15 110 oscparse;
#X obj 81 110 print;
#X obj 15 84 netreceive -u -b;
#X obj 15 188 route sensor;
#X obj 15 146 list trim;
#X floatatom 13 226 5 0 0 0 - - - 0;
#X msg 15 58 listen 4560;
#X obj 14 331 -;
#X floatatom 15 360 5 0 0 0 - - - 0;
#X obj 14 454 bng 19 250 50 0 empty empty empty 0 -10 0 12 #fcfcfc #000000 #000000;
#X floatatom 71 291 5 0 0 0 - - - 0;
#X obj 14 423 sel 0;
#X obj 15 13 loadbang;
#X obj 71 263 pipe 100;
#X obj 366 211 mapping/autoscale;
#X floatatom 379 167 8 0 0 0 - - - 0;
#X floatatom 443 167 8 0 0 0 - - - 0;
#X floatatom 366 238 5 0 0 0 - - - 0;
#X msg 354 62 \; pd dsp \$1;
#X obj 354 31 tgl 19 0 empty empty empty 0 -10 0 12 #fcfcfc #000000 #000000 0 1;
#X msg 378 133 6000;
#X msg 442 132 14000;
#X obj 14 392 expr if ($f1 < -700 \, 2 \, if ($f1 < -5 \, 0 \, 1));
#X connect 0 0 4 0;
#X connect 2 0 0 0;
#X connect 3 0 5 0;
#X connect 4 0 3 0;
#X connect 5 0 7 0;
#X connect 5 0 13 0;
#X connect 5 0 14 0;
#X connect 6 0 2 0;
#X connect 7 0 8 0;
#X connect 8 0 22 0;
#X connect 10 0 7 1;
#X connect 11 0 9 0;
#X connect 12 0 6 0;
#X connect 12 0 20 0;
#X connect 12 0 21 0;
#X connect 12 0 19 0;
#X connect 13 0 10 0;
#X connect 14 0 17 0;
#X connect 15 0 14 1;
#X connect 16 0 14 2;
#X connect 19 0 18 0;
#X connect 20 0 15 0;
#X connect 21 0 16 0;
#X connect 22 0 11 0;
