#N canvas 986 155 461 524 12;
#X obj 24 331 mtof;
#X floatatom 24 358 5 0 0 0 - - - 0;
#X obj 83 388 osc~;
#X obj 84 476 dac~;
#X obj 83 428 *~ 0.1;
#X obj 327 69 tgl 19 0 empty empty empty 0 -10 0 12 #fcfcfc #000000 #000000 0 1;
#X obj 87 131 oscparse;
#X obj 180 181 print;
#X obj 87 88 netreceive -u -b;
#X msg 86 45 listen 4560;
#X obj 87 224 route sensor;
#X obj 87 182 list trim;
#X floatatom 86 260 5 0 0 0 - - - 0;
#X floatatom 231 374 5 0 0 0 - - - 0;
#X obj 238 267 bng 19 250 50 0 empty empty empty 0 -10 0 12 #fcfcfc #000000 #000000;
#X obj 285 374 bng 19 250 50 0 empty empty empty 0 -10 0 12 #fcfcfc #000000 #000000;
#X obj 223 316 delay 500;
#X obj 28 294 / 10;
#X connect 0 0 1 0;
#X connect 2 0 4 0;
#X connect 4 0 3 0;
#X connect 4 0 3 1;
#X connect 5 0 4 1;
#X connect 6 0 7 0;
#X connect 6 0 11 0;
#X connect 8 0 6 0;
#X connect 9 0 8 0;
#X connect 10 0 12 0;
#X connect 11 0 10 0;
#X connect 12 0 17 0;
#X connect 12 0 2 0;
#X connect 14 0 16 0;
#X connect 16 0 13 0;
#X connect 16 0 15 0;
#X connect 17 0 0 0;
